<?xml version="1.0" encoding="UTF-8"?>
<svg width="16px" height="16px" viewBox="0 0 16 16" version="1.1" xmlns="http://www.w3.org/2000/svg" xmlns:xlink="http://www.w3.org/1999/xlink">
    <!-- Generator: Sketch 57.1 (83088) - https://sketch.com -->
    <title>Facebook-color</title>
    <desc>Created with Sketch.</desc>
    <g id="Page-1" stroke="none" stroke-width="1" fill="none" fill-rule="evenodd">
        <g id="Desktop" transform="translate(-161.000000, -307.000000)" fill="#4460A0">
            <g id="Sign-In" transform="translate(22.000000, 25.000000)">
                <path d="M147.279052,297.5 L139.855481,297.5 C139.382873,297.5 139,297.116889 139,296.644465 L139,282.855474 C139,282.382931 139.382934,282 139.855481,282 L153.644579,282 C154.117006,282 154.5,282.382931 154.5,282.855474 L154.5,296.644465 C154.5,297.116949 154.116946,297.5 153.644579,297.5 L149.694776,297.5 L149.694776,291.497546 L151.709522,291.497546 L152.011202,289.158283 L149.694776,289.158283 L149.694776,287.664811 C149.694776,286.987541 149.882844,286.526003 150.854041,286.526003 L152.092757,286.525462 L152.092757,284.433206 C151.878526,284.404699 151.143211,284.341007 150.28773,284.341007 C148.501769,284.341007 147.279052,285.43116 147.279052,287.43314 L147.279052,289.158283 L145.259133,289.158283 L145.259133,291.497546 L147.279052,291.497546 L147.279052,297.5 L147.279052,297.5 Z" id="Facebook"></path>
            </g>
        </g>
    </g>
</svg>