<?xml version="1.0" encoding="UTF-8"?>
<svg width="15px" height="16px" viewBox="0 0 15 16" version="1.1" xmlns="http://www.w3.org/2000/svg" xmlns:xlink="http://www.w3.org/1999/xlink">
    <!-- Generator: Sketch 57.1 (83088) - https://sketch.com -->
    <title>Google-color</title>
    <desc>Created with Sketch.</desc>
    <g id="Page-1" stroke="none" stroke-width="1" fill="none" fill-rule="evenodd">
        <g id="Desktop" transform="translate(-161.000000, -270.000000)">
            <g id="Sign-In" transform="translate(22.000000, 25.000000)">
                <g id="Google" transform="translate(139.000000, 245.000000)">
                    <path d="M3.1447272,7.67999983 C3.1447272,7.19223451 3.22573811,6.72460785 3.3703272,6.28599453 L0.839505436,4.35336524 C0.34626181,5.35483721 0.0683636348,6.48328519 0.0683636348,7.67999983 C0.0683636348,8.87569047 0.345919992,10.0034558 0.838479981,11.0042451 L3.36793447,9.06786113 C3.22471266,8.63129581 3.1447272,8.16537582 3.1447272,7.67999983" id="Fill-1" fill="#FBBC05"></path>
                    <path d="M7.58836347,3.24266659 C8.64799981,3.24266659 9.60509069,3.61813325 10.3570907,4.23253324 L12.544727,2.04799995 C11.2116361,0.887466647 9.50254524,0.170666663 7.58836347,0.170666663 C4.61659626,0.170666663 2.06253086,1.87016529 0.839505436,4.35336524 L3.3703272,6.28599453 C3.953469,4.5158399 5.61573078,3.24266659 7.58836347,3.24266659" id="Fill-2" fill="#EA4335"></path>
                    <path d="M7.58836347,12.1173331 C5.61573078,12.1173331 3.953469,10.8441598 3.3703272,9.07400513 L0.839505436,11.0062931 C2.06253086,13.4898344 4.61659626,15.189333 7.58836347,15.189333 C9.42255979,15.189333 11.1736943,14.538069 12.4879852,13.3178024 L10.085687,11.4606077 C9.40786161,11.8876157 8.55434163,12.1173331 7.58836347,12.1173331" id="Fill-3" fill="#34A853"></path>
                    <path d="M14.7665451,7.67999983 C14.7665451,7.2362665 14.6981815,6.75839985 14.595636,6.31466653 L7.58836347,6.31466653 L7.58836347,9.21599979 L11.6218179,9.21599979 C11.4201452,10.2051838 10.8711852,10.9656744 10.085687,11.4606077 L12.4879852,13.3178024 C13.8685888,12.0364371 14.7665451,10.1277011 14.7665451,7.67999983" id="Fill-4" fill="#4285F4"></path>
                </g>
            </g>
        </g>
    </g>
</svg>