<svg xmlns="http://www.w3.org/2000/svg" viewBox="0 0 235.79 101.6"><defs><style>.cls-1{fill:#240746;}.cls-1,.cls-2,.cls-3{stroke:#000;stroke-miterlimit:10;}.cls-2{fill:#bc8cf3;}.cls-3{fill:#aa6df0;}</style></defs><title>Artboard 2</title><g id="Layer_3" data-name="Layer 3"><path class="cls-1" d="M12.68,84.25V17.05H22.85v28.8H55.4V17.05H65.57v67.2H55.4v-30H22.85V84.25Z"/><path class="cls-1" d="M100,85.4a24.46,24.46,0,0,1-12.43-3.12A22.13,22.13,0,0,1,79,73.59a26.37,26.37,0,0,1-3.07-13,27.59,27.59,0,0,1,3-13.15,22.11,22.11,0,0,1,8.45-8.83,24.63,24.63,0,0,1,12.63-3.17,23.2,23.2,0,0,1,12.19,3.12,22.13,22.13,0,0,1,8.06,8.3,23.16,23.16,0,0,1,2.88,11.43c0,.64,0,1.33-.05,2.06s-.08,1.56-.14,2.45H85.93q.48,6.91,4.56,10.51A13.88,13.88,0,0,0,100,77a12.65,12.65,0,0,0,7.25-2,11.91,11.91,0,0,0,4.37-5.32h10.17a21.6,21.6,0,0,1-7.63,11.23A22.13,22.13,0,0,1,100,85.4Zm0-41.57a14.38,14.38,0,0,0-9,3q-3.95,3-4.8,9.07H113a12.18,12.18,0,0,0-3.94-8.83A13.15,13.15,0,0,0,100,43.83Z"/><path class="cls-1" d="M132.48,84.25V15.13h10.17V84.25Z"/><path class="cls-1" d="M154.26,84.25V15.13h10.17V84.25Z"/><path class="cls-1" d="M198,85.4a24.12,24.12,0,0,1-12.24-3.12,22.76,22.76,0,0,1-8.59-8.74A26.22,26.22,0,0,1,174,60.44a25.83,25.83,0,0,1,3.22-13.1,22.94,22.94,0,0,1,8.69-8.74,25.47,25.47,0,0,1,24.43,0A23.17,23.17,0,0,1,219,47.34a25.93,25.93,0,0,1,3.21,13.1A25.93,25.93,0,0,1,219,73.54a23,23,0,0,1-8.69,8.74A24.36,24.36,0,0,1,198,85.4Zm0-8.74a13.15,13.15,0,0,0,6.77-1.82,13.33,13.33,0,0,0,5-5.42,18.92,18.92,0,0,0,1.92-9,19.35,19.35,0,0,0-1.87-9A13.27,13.27,0,0,0,191.36,46a13.39,13.39,0,0,0-5,5.42,19,19,0,0,0-1.92,9,18.92,18.92,0,0,0,1.92,9,13.42,13.42,0,0,0,5,5.42A12.89,12.89,0,0,0,198,76.66Z"/><path class="cls-2" d="M17.68,83.25V16.05H27.85v28.8H60.4V16.05H70.57v67.2H60.4v-30H27.85V83.25Z"/><path class="cls-2" d="M105,84.4a24.46,24.46,0,0,1-12.43-3.12A22.13,22.13,0,0,1,84,72.59a26.37,26.37,0,0,1-3.07-13,27.59,27.59,0,0,1,3-13.15,22.11,22.11,0,0,1,8.45-8.83,24.63,24.63,0,0,1,12.63-3.17,23.2,23.2,0,0,1,12.19,3.12,22.13,22.13,0,0,1,8.06,8.3,23.16,23.16,0,0,1,2.88,11.43c0,.64,0,1.33-.05,2.06s-.08,1.56-.14,2.45H90.93q.48,6.91,4.56,10.51A13.88,13.88,0,0,0,105,76a12.65,12.65,0,0,0,7.25-2,11.91,11.91,0,0,0,4.37-5.32h10.17a21.6,21.6,0,0,1-7.63,11.23A22.13,22.13,0,0,1,105,84.4Zm0-41.57a14.38,14.38,0,0,0-9,3q-3.95,3-4.8,9.07H118a12.18,12.18,0,0,0-3.94-8.83A13.15,13.15,0,0,0,105,42.83Z"/><path class="cls-2" d="M137.48,83.25V14.13h10.17V83.25Z"/><path class="cls-2" d="M159.26,83.25V14.13h10.17V83.25Z"/><path class="cls-2" d="M203,84.4a24.12,24.12,0,0,1-12.24-3.12,22.76,22.76,0,0,1-8.59-8.74A26.22,26.22,0,0,1,179,59.44a25.83,25.83,0,0,1,3.22-13.1,22.94,22.94,0,0,1,8.69-8.74,25.47,25.47,0,0,1,24.43,0A23.17,23.17,0,0,1,224,46.34a25.93,25.93,0,0,1,3.21,13.1A25.93,25.93,0,0,1,224,72.54a23,23,0,0,1-8.69,8.74A24.36,24.36,0,0,1,203,84.4Zm0-8.74a13.15,13.15,0,0,0,6.77-1.82,13.33,13.33,0,0,0,5-5.42,18.92,18.92,0,0,0,1.92-9,19.35,19.35,0,0,0-1.87-9A13.27,13.27,0,0,0,196.36,45a13.39,13.39,0,0,0-5,5.42,19,19,0,0,0-1.92,9,18.92,18.92,0,0,0,1.92,9,13.42,13.42,0,0,0,5,5.42A12.89,12.89,0,0,0,203,75.66Z"/><line class="cls-3" x1="17.68" y1="16.05" x2="12.68" y2="17.05"/><line class="cls-3" x1="27.85" y1="83.25" x2="22.85" y2="84.25"/><line class="cls-3" x1="60.4" y1="16.05" x2="55.4" y2="17.05"/><line class="cls-3" x1="70.57" y1="83.25" x2="65.57" y2="84.25"/><line class="cls-3" x1="127.99" y1="61.84" x2="122.99" y2="62.84"/><line class="cls-3" x1="116.57" y1="68.66" x2="111.57" y2="69.66"/><line class="cls-3" x1="137.48" y1="14.13" x2="132.48" y2="15.13"/><line class="cls-3" x1="147.65" y1="83.25" x2="142.65" y2="84.25"/><line class="cls-3" x1="159.26" y1="14.13" x2="154.26" y2="15.13"/><line class="cls-3" x1="169.43" y1="83.25" x2="164.43" y2="84.25"/></g></svg>