<?xml version="1.0" encoding="UTF-8"?>
<svg width="216px" height="73px" viewBox="0 0 216 73" version="1.1" xmlns="http://www.w3.org/2000/svg" xmlns:xlink="http://www.w3.org/1999/xlink">
    <!-- Generator: Sketch 60 (88103) - https://sketch.com -->
    <title>Group 56</title>
    <desc>Created with Sketch.</desc>
    <defs>
        <polygon id="path-1" points="0 73 215.546 73 215.546 0.728 0 0.728"></polygon>
    </defs>
    <g id="Page-1" stroke="none" stroke-width="1" fill="none" fill-rule="evenodd">
        <g id="Group-56" transform="translate(0.000000, -1.000000)">
            <polygon id="Fill-1" fill="#240746" points="43.2207 4.4202 43.2207 33.2202 10.6767 33.2202 10.6767 4.4202 0.4997 4.4202 0.4997 71.6202 10.6767 71.6202 10.6767 41.5722 43.2207 41.5722 43.2207 71.6202 53.3957 71.6202 53.3957 4.4202"></polygon>
            <g id="Group-55" transform="translate(0.000000, 0.272000)">
                <polygon id="Stroke-2" stroke="#000000" points="0.4996 71.3484 0.4996 4.1484 10.6766 4.1484 10.6766 32.9484 43.2206 32.9484 43.2206 4.1484 53.3956 4.1484 53.3956 71.3484 43.2206 71.3484 43.2206 41.3004 10.6766 41.3004 10.6766 71.3484"></polygon>
                <path d="M87.7731,30.9324 C84.3791,30.9324 81.3731,31.9404 78.7491,33.9554 C76.1241,35.9724 74.5251,38.9954 73.9491,43.0284 L100.8291,43.0284 C100.6361,39.3174 99.3241,36.3724 96.8931,34.1964 C94.4601,32.0214 91.4201,30.9324 87.7731,30.9324 M87.7731,72.4994 C83.1001,72.4994 78.9561,71.4584 75.3401,69.3804 C71.7241,67.3014 68.8921,64.4054 66.8441,60.6924 C64.7951,56.9814 63.7731,52.6614 63.7731,47.7324 C63.7731,42.7404 64.7811,38.3574 66.7961,34.5794 C68.8131,30.8044 71.6281,27.8604 75.2451,25.7474 C78.8601,23.6364 83.0691,22.5794 87.8691,22.5794 C92.5401,22.5794 96.6051,23.6204 100.0611,25.7004 C103.5171,27.7814 106.2051,30.5484 108.1251,34.0034 C110.0441,37.4594 111.0041,41.2684 111.0041,45.4284 C111.0041,46.0694 110.9881,46.7574 110.9571,47.4924 C110.9231,48.2284 110.8761,49.0444 110.8131,49.9404 L73.7561,49.9404 C74.0761,54.5484 75.5951,58.0524 78.3171,60.4524 C81.0361,62.8524 84.1881,64.0524 87.7731,64.0524 C90.6531,64.0524 93.0681,63.3964 95.0211,62.0834 C96.9721,60.7734 98.4281,58.9964 99.3881,56.7564 L109.5651,56.7564 C108.2841,61.2374 105.7401,64.9804 101.9321,67.9884 C98.1251,70.9964 93.4041,72.4994 87.7731,72.4994" id="Fill-4" fill="#240746"></path>
                <path d="M87.7731,30.9324 C84.3791,30.9324 81.3731,31.9404 78.7491,33.9554 C76.1241,35.9724 74.5251,38.9954 73.9491,43.0284 L100.8291,43.0284 C100.6361,39.3174 99.3241,36.3724 96.8931,34.1964 C94.4601,32.0214 91.4201,30.9324 87.7731,30.9324 Z M87.7731,72.4994 C83.1001,72.4994 78.9561,71.4584 75.3401,69.3804 C71.7241,67.3014 68.8921,64.4054 66.8441,60.6924 C64.7951,56.9814 63.7731,52.6614 63.7731,47.7324 C63.7731,42.7404 64.7811,38.3574 66.7961,34.5794 C68.8131,30.8044 71.6281,27.8604 75.2451,25.7474 C78.8601,23.6364 83.0691,22.5794 87.8691,22.5794 C92.5401,22.5794 96.6051,23.6204 100.0611,25.7004 C103.5171,27.7814 106.2051,30.5484 108.1251,34.0034 C110.0441,37.4594 111.0041,41.2684 111.0041,45.4284 C111.0041,46.0694 110.9881,46.7574 110.9571,47.4924 C110.9231,48.2284 110.8761,49.0444 110.8131,49.9404 L73.7561,49.9404 C74.0761,54.5484 75.5951,58.0524 78.3171,60.4524 C81.0361,62.8524 84.1881,64.0524 87.7731,64.0524 C90.6531,64.0524 93.0681,63.3964 95.0211,62.0834 C96.9721,60.7734 98.4281,58.9964 99.3881,56.7564 L109.5651,56.7564 C108.2841,61.2374 105.7401,64.9804 101.9321,67.9884 C98.1251,70.9964 93.4041,72.4994 87.7731,72.4994 Z" id="Stroke-6" stroke="#000000"></path>
                <mask id="mask-2" fill="white">
                    <use xlink:href="#path-1"></use>
                </mask>
                <g id="Clip-9"></g>
                <polygon id="Fill-8" fill="#240746" mask="url(#mask-2)" points="120.298 71.348 130.474 71.348 130.474 2.228 120.298 2.228"></polygon>
                <polygon id="Stroke-10" stroke="#000000" mask="url(#mask-2)" points="120.298 71.348 130.474 71.348 130.474 2.228 120.298 2.228"></polygon>
                <polygon id="Fill-11" fill="#240746" mask="url(#mask-2)" points="142.08 71.348 152.256 71.348 152.256 2.228 142.08 2.228"></polygon>
                <polygon id="Stroke-12" stroke="#000000" mask="url(#mask-2)" points="142.08 71.348 152.256 71.348 152.256 2.228 142.08 2.228"></polygon>
                <path d="M185.8541,63.7644 C188.2861,63.7644 190.5411,63.1574 192.6231,61.9404 C194.7011,60.7254 196.3811,58.9154 197.6631,56.5164 C198.9421,54.1164 199.5831,51.1244 199.5831,47.5394 C199.5831,43.9564 198.9581,40.9644 197.7101,38.5644 C196.4621,36.1634 194.7971,34.3564 192.7181,33.1404 C190.6371,31.9254 188.3811,31.3164 185.9501,31.3164 C183.5171,31.3164 181.2611,31.9254 179.1821,33.1404 C177.1021,34.3564 175.4211,36.1634 174.1421,38.5644 C172.8611,40.9644 172.2221,43.9564 172.2221,47.5394 C172.2221,51.1244 172.8611,54.1164 174.1421,56.5164 C175.4211,58.9154 177.0851,60.7254 179.1341,61.9404 C181.1821,63.1574 183.4211,63.7644 185.8541,63.7644 M185.8541,72.4994 C181.3091,72.4994 177.2291,71.4584 173.6141,69.3804 C169.9981,67.3014 167.1341,64.3884 165.0221,60.6444 C162.9101,56.9004 161.8541,52.5324 161.8541,47.5394 C161.8541,42.5484 162.9251,38.1804 165.0701,34.4364 C167.2131,30.6924 170.1101,27.7814 173.7581,25.7004 C177.4061,23.6204 181.4691,22.5794 185.9501,22.5794 C190.4941,22.5794 194.5741,23.6204 198.1901,25.7004 C201.8051,27.7814 204.6851,30.6924 206.8311,34.4364 C208.9741,38.1804 210.0461,42.5484 210.0461,47.5394 C210.0461,52.5324 208.9741,56.9004 206.8311,60.6444 C204.6851,64.3884 201.7911,67.3014 198.1421,69.3804 C194.4951,71.4584 190.3981,72.4994 185.8541,72.4994" id="Fill-13" fill="#240746" mask="url(#mask-2)"></path>
                <path d="M185.8541,63.7644 C188.2861,63.7644 190.5411,63.1574 192.6231,61.9404 C194.7011,60.7254 196.3811,58.9154 197.6631,56.5164 C198.9421,54.1164 199.5831,51.1244 199.5831,47.5394 C199.5831,43.9564 198.9581,40.9644 197.7101,38.5644 C196.4621,36.1634 194.7971,34.3564 192.7181,33.1404 C190.6371,31.9254 188.3811,31.3164 185.9501,31.3164 C183.5171,31.3164 181.2611,31.9254 179.1821,33.1404 C177.1021,34.3564 175.4211,36.1634 174.1421,38.5644 C172.8611,40.9644 172.2221,43.9564 172.2221,47.5394 C172.2221,51.1244 172.8611,54.1164 174.1421,56.5164 C175.4211,58.9154 177.0851,60.7254 179.1341,61.9404 C181.1821,63.1574 183.4211,63.7644 185.8541,63.7644 Z M185.8541,72.4994 C181.3091,72.4994 177.2291,71.4584 173.6141,69.3804 C169.9981,67.3014 167.1341,64.3884 165.0221,60.6444 C162.9101,56.9004 161.8541,52.5324 161.8541,47.5394 C161.8541,42.5484 162.9251,38.1804 165.0701,34.4364 C167.2131,30.6924 170.1101,27.7814 173.7581,25.7004 C177.4061,23.6204 181.4691,22.5794 185.9501,22.5794 C190.4941,22.5794 194.5741,23.6204 198.1901,25.7004 C201.8051,27.7814 204.6851,30.6924 206.8311,34.4364 C208.9741,38.1804 210.0461,42.5484 210.0461,47.5394 C210.0461,52.5324 208.9741,56.9004 206.8311,60.6444 C204.6851,64.3884 201.7911,67.3014 198.1421,69.3804 C194.4951,71.4584 190.3981,72.4994 185.8541,72.4994 Z" id="Stroke-14" stroke="#000000" mask="url(#mask-2)"></path>
                <polygon id="Fill-15" fill="#BC8CF3" mask="url(#mask-2)" points="5.4996 70.3484 5.4996 3.1484 15.6766 3.1484 15.6766 31.9484 48.2206 31.9484 48.2206 3.1484 58.3956 3.1484 58.3956 70.3484 48.2206 70.3484 48.2206 40.3004 15.6766 40.3004 15.6766 70.3484"></polygon>
                <polygon id="Stroke-16" stroke="#000000" mask="url(#mask-2)" points="5.4996 70.3484 5.4996 3.1484 15.6766 3.1484 15.6766 31.9484 48.2206 31.9484 48.2206 3.1484 58.3956 3.1484 58.3956 70.3484 48.2206 70.3484 48.2206 40.3004 15.6766 40.3004 15.6766 70.3484"></polygon>
                <path d="M92.7731,29.9324 C89.3791,29.9324 86.3731,30.9404 83.7491,32.9554 C81.1241,34.9724 79.5251,37.9954 78.9491,42.0284 L105.8291,42.0284 C105.6361,38.3174 104.3241,35.3724 101.8931,33.1964 C99.4601,31.0214 96.4201,29.9324 92.7731,29.9324 M92.7731,71.4994 C88.1001,71.4994 83.9561,70.4584 80.3401,68.3804 C76.7241,66.3014 73.8921,63.4054 71.8441,59.6924 C69.7951,55.9814 68.7731,51.6614 68.7731,46.7324 C68.7731,41.7404 69.7811,37.3574 71.7961,33.5794 C73.8131,29.8044 76.6281,26.8604 80.2451,24.7474 C83.8601,22.6364 88.0691,21.5794 92.8691,21.5794 C97.5401,21.5794 101.6051,22.6204 105.0611,24.7004 C108.5171,26.7814 111.2051,29.5484 113.1251,33.0034 C115.0441,36.4594 116.0041,40.2684 116.0041,44.4284 C116.0041,45.0694 115.9881,45.7574 115.9571,46.4924 C115.9231,47.2284 115.8761,48.0444 115.8131,48.9404 L78.7561,48.9404 C79.0761,53.5484 80.5951,57.0524 83.3171,59.4524 C86.0361,61.8524 89.1881,63.0524 92.7731,63.0524 C95.6531,63.0524 98.0681,62.3964 100.0211,61.0834 C101.9721,59.7734 103.4281,57.9964 104.3881,55.7564 L114.5651,55.7564 C113.2841,60.2374 110.7401,63.9804 106.9321,66.9884 C103.1251,69.9964 98.4041,71.4994 92.7731,71.4994" id="Fill-17" fill="#BC8CF3" mask="url(#mask-2)"></path>
                <path d="M92.7731,29.9324 C89.3791,29.9324 86.3731,30.9404 83.7491,32.9554 C81.1241,34.9724 79.5251,37.9954 78.9491,42.0284 L105.8291,42.0284 C105.6361,38.3174 104.3241,35.3724 101.8931,33.1964 C99.4601,31.0214 96.4201,29.9324 92.7731,29.9324 Z M92.7731,71.4994 C88.1001,71.4994 83.9561,70.4584 80.3401,68.3804 C76.7241,66.3014 73.8921,63.4054 71.8441,59.6924 C69.7951,55.9814 68.7731,51.6614 68.7731,46.7324 C68.7731,41.7404 69.7811,37.3574 71.7961,33.5794 C73.8131,29.8044 76.6281,26.8604 80.2451,24.7474 C83.8601,22.6364 88.0691,21.5794 92.8691,21.5794 C97.5401,21.5794 101.6051,22.6204 105.0611,24.7004 C108.5171,26.7814 111.2051,29.5484 113.1251,33.0034 C115.0441,36.4594 116.0041,40.2684 116.0041,44.4284 C116.0041,45.0694 115.9881,45.7574 115.9571,46.4924 C115.9231,47.2284 115.8761,48.0444 115.8131,48.9404 L78.7561,48.9404 C79.0761,53.5484 80.5951,57.0524 83.3171,59.4524 C86.0361,61.8524 89.1881,63.0524 92.7731,63.0524 C95.6531,63.0524 98.0681,62.3964 100.0211,61.0834 C101.9721,59.7734 103.4281,57.9964 104.3881,55.7564 L114.5651,55.7564 C113.2841,60.2374 110.7401,63.9804 106.9321,66.9884 C103.1251,69.9964 98.4041,71.4994 92.7731,71.4994 Z" id="Stroke-18" stroke="#000000" mask="url(#mask-2)"></path>
                <polygon id="Fill-19" fill="#BC8CF3" mask="url(#mask-2)" points="125.298 70.348 135.474 70.348 135.474 1.228 125.298 1.228"></polygon>
                <polygon id="Stroke-20" stroke="#000000" mask="url(#mask-2)" points="125.298 70.348 135.474 70.348 135.474 1.228 125.298 1.228"></polygon>
                <polygon id="Fill-21" fill="#BC8CF3" mask="url(#mask-2)" points="147.08 70.348 157.256 70.348 157.256 1.228 147.08 1.228"></polygon>
                <polygon id="Stroke-22" stroke="#000000" mask="url(#mask-2)" points="147.08 70.348 157.256 70.348 157.256 1.228 147.08 1.228"></polygon>
                <path d="M190.8541,62.7644 C193.2861,62.7644 195.5411,62.1574 197.6231,60.9404 C199.7011,59.7254 201.3811,57.9154 202.6631,55.5164 C203.9421,53.1164 204.5831,50.1244 204.5831,46.5394 C204.5831,42.9564 203.9581,39.9644 202.7101,37.5644 C201.4621,35.1634 199.7971,33.3564 197.7181,32.1404 C195.6371,30.9254 193.3811,30.3164 190.9501,30.3164 C188.5171,30.3164 186.2611,30.9254 184.1821,32.1404 C182.1021,33.3564 180.4211,35.1634 179.1421,37.5644 C177.8611,39.9644 177.2221,42.9564 177.2221,46.5394 C177.2221,50.1244 177.8611,53.1164 179.1421,55.5164 C180.4211,57.9154 182.0851,59.7254 184.1341,60.9404 C186.1821,62.1574 188.4211,62.7644 190.8541,62.7644 M190.8541,71.4994 C186.3091,71.4994 182.2291,70.4584 178.6141,68.3804 C174.9981,66.3014 172.1341,63.3884 170.0221,59.6444 C167.9101,55.9004 166.8541,51.5324 166.8541,46.5394 C166.8541,41.5484 167.9251,37.1804 170.0701,33.4364 C172.2131,29.6924 175.1101,26.7814 178.7581,24.7004 C182.4061,22.6204 186.4691,21.5794 190.9501,21.5794 C195.4941,21.5794 199.5741,22.6204 203.1901,24.7004 C206.8051,26.7814 209.6851,29.6924 211.8311,33.4364 C213.9741,37.1804 215.0461,41.5484 215.0461,46.5394 C215.0461,51.5324 213.9741,55.9004 211.8311,59.6444 C209.6851,63.3884 206.7911,66.3014 203.1421,68.3804 C199.4951,70.4584 195.3981,71.4994 190.8541,71.4994" id="Fill-23" fill="#BC8CF3" mask="url(#mask-2)"></path>
                <path d="M190.8541,62.7644 C193.2861,62.7644 195.5411,62.1574 197.6231,60.9404 C199.7011,59.7254 201.3811,57.9154 202.6631,55.5164 C203.9421,53.1164 204.5831,50.1244 204.5831,46.5394 C204.5831,42.9564 203.9581,39.9644 202.7101,37.5644 C201.4621,35.1634 199.7971,33.3564 197.7181,32.1404 C195.6371,30.9254 193.3811,30.3164 190.9501,30.3164 C188.5171,30.3164 186.2611,30.9254 184.1821,32.1404 C182.1021,33.3564 180.4211,35.1634 179.1421,37.5644 C177.8611,39.9644 177.2221,42.9564 177.2221,46.5394 C177.2221,50.1244 177.8611,53.1164 179.1421,55.5164 C180.4211,57.9154 182.0851,59.7254 184.1341,60.9404 C186.1821,62.1574 188.4211,62.7644 190.8541,62.7644 Z M190.8541,71.4994 C186.3091,71.4994 182.2291,70.4584 178.6141,68.3804 C174.9981,66.3014 172.1341,63.3884 170.0221,59.6444 C167.9101,55.9004 166.8541,51.5324 166.8541,46.5394 C166.8541,41.5484 167.9251,37.1804 170.0701,33.4364 C172.2131,29.6924 175.1101,26.7814 178.7581,24.7004 C182.4061,22.6204 186.4691,21.5794 190.9501,21.5794 C195.4941,21.5794 199.5741,22.6204 203.1901,24.7004 C206.8051,26.7814 209.6851,29.6924 211.8311,33.4364 C213.9741,37.1804 215.0461,41.5484 215.0461,46.5394 C215.0461,51.5324 213.9741,55.9004 211.8311,59.6444 C209.6851,63.3884 206.7911,66.3014 203.1421,68.3804 C199.4951,70.4584 195.3981,71.4994 190.8541,71.4994 Z" id="Stroke-24" stroke="#000000" mask="url(#mask-2)"></path>
                <g id="Group-27" mask="url(#mask-2)">
                    <g transform="translate(0.000000, 3.000000)">
                        <line x1="5.4996" y1="0.1482" x2="0.4996" y2="1.1482" id="Fill-25" stroke="none" fill="#AA6DF0" fill-rule="evenodd"></line>
                        <line x1="5.4996" y1="0.1482" x2="0.4996" y2="1.1482" id="Stroke-26" stroke="#000000" stroke-width="1" fill="none"></line>
                    </g>
                </g>
                <g id="Group-30" mask="url(#mask-2)">
                    <g transform="translate(10.000000, 70.000000)">
                        <line x1="5.6764" y1="0.3484" x2="0.6764" y2="1.3484" id="Fill-28" stroke="none" fill="#AA6DF0" fill-rule="evenodd"></line>
                        <line x1="5.6764" y1="0.3484" x2="0.6764" y2="1.3484" id="Stroke-29" stroke="#000000" stroke-width="1" fill="none"></line>
                    </g>
                </g>
                <g id="Group-33" mask="url(#mask-2)">
                    <g transform="translate(43.000000, 3.000000)">
                        <line x1="5.2204" y1="0.1482" x2="0.2204" y2="1.1482" id="Fill-31" stroke="none" fill="#AA6DF0" fill-rule="evenodd"></line>
                        <line x1="5.2204" y1="0.1482" x2="0.2204" y2="1.1482" id="Stroke-32" stroke="#000000" stroke-width="1" fill="none"></line>
                    </g>
                </g>
                <g id="Group-36" mask="url(#mask-2)">
                    <g transform="translate(53.000000, 70.000000)">
                        <line x1="5.3961" y1="0.3484" x2="0.3961" y2="1.3484" id="Fill-34" stroke="none" fill="#AA6DF0" fill-rule="evenodd"></line>
                        <line x1="5.3961" y1="0.3484" x2="0.3961" y2="1.3484" id="Stroke-35" stroke="#000000" stroke-width="1" fill="none"></line>
                    </g>
                </g>
                <g id="Group-39" mask="url(#mask-2)">
                    <g transform="translate(110.000000, 48.000000)">
                        <line x1="5.8131" y1="0.9402" x2="0.8131" y2="1.9402" id="Fill-37" stroke="none" fill="#AA6DF0" fill-rule="evenodd"></line>
                        <line x1="5.8131" y1="0.9402" x2="0.8131" y2="1.9402" id="Stroke-38" stroke="#000000" stroke-width="1" fill="none"></line>
                    </g>
                </g>
                <g id="Group-42" mask="url(#mask-2)">
                    <g transform="translate(99.000000, 55.000000)">
                        <line x1="5.3883" y1="0.7566" x2="0.3883" y2="1.7566" id="Fill-40" stroke="none" fill="#AA6DF0" fill-rule="evenodd"></line>
                        <line x1="5.3883" y1="0.7566" x2="0.3883" y2="1.7566" id="Stroke-41" stroke="#000000" stroke-width="1" fill="none"></line>
                    </g>
                </g>
                <g id="Group-45" mask="url(#mask-2)">
                    <g transform="translate(120.000000, 1.000000)">
                        <line x1="5.2975" y1="0.2283" x2="0.2975" y2="1.2283" id="Fill-43" stroke="none" fill="#AA6DF0" fill-rule="evenodd"></line>
                        <line x1="5.2975" y1="0.2283" x2="0.2975" y2="1.2283" id="Stroke-44" stroke="#000000" stroke-width="1" fill="none"></line>
                    </g>
                </g>
                <g id="Group-48" mask="url(#mask-2)">
                    <g transform="translate(130.000000, 70.000000)">
                        <line x1="5.4733" y1="0.3484" x2="0.4733" y2="1.3484" id="Fill-46" stroke="none" fill="#AA6DF0" fill-rule="evenodd"></line>
                        <line x1="5.4733" y1="0.3484" x2="0.4733" y2="1.3484" id="Stroke-47" stroke="#000000" stroke-width="1" fill="none"></line>
                    </g>
                </g>
                <g id="Group-51" mask="url(#mask-2)">
                    <g transform="translate(142.000000, 1.000000)">
                        <line x1="5.0797" y1="0.2283" x2="0.0797" y2="1.2283" id="Fill-49" stroke="none" fill="#AA6DF0" fill-rule="evenodd"></line>
                        <line x1="5.0797" y1="0.2283" x2="0.0797" y2="1.2283" id="Stroke-50" stroke="#000000" stroke-width="1" fill="none"></line>
                    </g>
                </g>
                <g id="Group-54" mask="url(#mask-2)">
                    <g transform="translate(152.000000, 70.000000)">
                        <line x1="5.2555" y1="0.3484" x2="0.2555" y2="1.3484" id="Fill-52" stroke="none" fill="#AA6DF0" fill-rule="evenodd"></line>
                        <line x1="5.2555" y1="0.3484" x2="0.2555" y2="1.3484" id="Stroke-53" stroke="#000000" stroke-width="1" fill="none"></line>
                    </g>
                </g>
            </g>
        </g>
    </g>
</svg>