<!--?xml version="1.0" encoding="utf-8"?-->
<!-- Generator: Adobe Illustrator 22.0.1, SVG Export Plug-In . SVG Version: 6.00 Build 0)  -->
<svg version="1.1" id="hellok" xmlns="http://www.w3.org/2000/svg" xmlns:xlink="http://www.w3.org/1999/xlink" x="0px" y="0px" viewBox="0 0 220 73" style="" xml:space="preserve">
<style type="text/css">
	.st0{fill:none;stroke:#BC8CF3;stroke-width:3;stroke-miterlimit:10;}
	.st1{fill:none;stroke:#000000;stroke-width:0.75;}
</style>
<path class="st0 ApOAttce_0" d="M0.8,71V3.8H11v28.8h32.5V3.8h10.2V71H43.5V41H11v30H0.8z"></path>
<path class="st0 ApOAttce_1" d="M89.2,72.2c-4.7,0-8.8-1-12.4-3.1c-3.6-2.1-6.4-5-8.5-8.7c-2-3.7-3.1-8-3.1-13c0-5,1-9.4,3-13.2
	s4.8-6.7,8.4-8.8c3.6-2.1,7.8-3.2,12.6-3.2c4.7,0,8.7,1,12.2,3.1c3.5,2.1,6.1,4.8,8.1,8.3c1.9,3.5,2.9,7.3,2.9,11.4
	c0,0.6,0,1.3,0,2.1c0,0.7-0.1,1.6-0.1,2.4H75.2c0.3,4.6,1.8,8.1,4.6,10.5c2.7,2.4,5.9,3.6,9.5,3.6c2.9,0,5.3-0.7,7.2-2
	c2-1.3,3.4-3.1,4.4-5.3H111c-1.3,4.5-3.8,8.2-7.6,11.2C99.6,70.6,94.9,72.2,89.2,72.2z M89.2,30.6c-3.4,0-6.4,1-9,3
	c-2.6,2-4.2,5-4.8,9.1h26.9c-0.2-3.7-1.5-6.7-3.9-8.8C95.9,31.7,92.9,30.6,89.2,30.6z"></path>
<path class="st0 ApOAttce_2" d="M123,71V1.9h10.2V71H123z"></path>
<path class="st0 ApOAttce_3" d="M146.1,71V1.9h10.2V71H146.1z"></path>
<path class="st0 ApOAttce_4" d="M191.4,72.2c-4.5,0-8.6-1-12.2-3.1s-6.5-5-8.6-8.7c-2.1-3.7-3.2-8.1-3.2-13.1c0-5,1.1-9.4,3.2-13.1
	c2.1-3.7,5-6.7,8.7-8.7c3.6-2.1,7.7-3.1,12.2-3.1c4.5,0,8.6,1,12.2,3.1c3.6,2.1,6.5,5,8.6,8.7c2.1,3.7,3.2,8.1,3.2,13.1
	c0,5-1.1,9.4-3.2,13.1c-2.1,3.7-5,6.7-8.7,8.7C200,71.1,195.9,72.2,191.4,72.2z M191.4,63.4c2.4,0,4.7-0.6,6.8-1.8
	c2.1-1.2,3.8-3,5-5.4c1.3-2.4,1.9-5.4,1.9-9c0-3.6-0.6-6.6-1.9-9c-1.2-2.4-2.9-4.2-5-5.4c-2.1-1.2-4.3-1.8-6.8-1.8s-4.7,0.6-6.8,1.8
	c-2.1,1.2-3.8,3-5,5.4c-1.3,2.4-1.9,5.4-1.9,9c0,3.6,0.6,6.6,1.9,9c1.3,2.4,2.9,4.2,5,5.4C186.7,62.8,188.9,63.4,191.4,63.4z"></path>
<path class="st1 ApOAttce_5" d="M3.8,70V2.8H14v28.8h32.5V2.8h10.2V70H46.5V40H14v30H3.8z"></path>
<path class="st1 ApOAttce_6" d="M92.2,71.2c-4.7,0-8.8-1-12.4-3.1c-3.6-2.1-6.4-5-8.5-8.7c-2-3.7-3.1-8-3.1-13c0-5,1-9.4,3-13.2
	s4.8-6.7,8.4-8.8c3.6-2.1,7.8-3.2,12.6-3.2c4.7,0,8.7,1,12.2,3.1c3.5,2.1,6.1,4.8,8.1,8.3c1.9,3.5,2.9,7.3,2.9,11.4
	c0,0.6,0,1.3,0,2.1c0,0.7-0.1,1.6-0.1,2.4H78.2c0.3,4.6,1.8,8.1,4.6,10.5c2.7,2.4,5.9,3.6,9.5,3.6c2.9,0,5.3-0.7,7.2-2
	c2-1.3,3.4-3.1,4.4-5.3H114c-1.3,4.5-3.8,8.2-7.6,11.2C102.6,69.6,97.9,71.2,92.2,71.2z M92.2,29.6c-3.4,0-6.4,1-9,3
	c-2.6,2-4.2,5-4.8,9.1h26.9c-0.2-3.7-1.5-6.7-3.9-8.8C98.9,30.7,95.9,29.6,92.2,29.6z"></path>
<path class="st1 ApOAttce_7" d="M126,70V0.9h10.2V70H126z"></path>
<path class="st1 ApOAttce_8" d="M149.1,70V0.9h10.2V70H149.1z"></path>
<path class="st1 ApOAttce_9" d="M194.4,71.2c-4.5,0-8.6-1-12.2-3.1s-6.5-5-8.6-8.7c-2.1-3.7-3.2-8.1-3.2-13.1c0-5,1.1-9.4,3.2-13.1
	c2.1-3.7,5-6.7,8.7-8.7c3.6-2.1,7.7-3.1,12.2-3.1c4.5,0,8.6,1,12.2,3.1c3.6,2.1,6.5,5,8.6,8.7c2.1,3.7,3.2,8.1,3.2,13.1
	c0,5-1.1,9.4-3.2,13.1c-2.1,3.7-5,6.7-8.7,8.7C203,70.1,198.9,71.2,194.4,71.2z M194.4,62.4c2.4,0,4.7-0.6,6.8-1.8
	c2.1-1.2,3.8-3,5-5.4c1.3-2.4,1.9-5.4,1.9-9c0-3.6-0.6-6.6-1.9-9c-1.2-2.4-2.9-4.2-5-5.4c-2.1-1.2-4.3-1.8-6.8-1.8s-4.7,0.6-6.8,1.8
	c-2.1,1.2-3.8,3-5,5.4c-1.3,2.4-1.9,5.4-1.9,9c0,3.6,0.6,6.6,1.9,9c1.3,2.4,2.9,4.2,5,5.4C189.7,61.8,191.9,62.4,194.4,62.4z"></path>
<style data-made-with="vivus-instant">.ApOAttce_0{stroke-dasharray:358 360;stroke-dashoffset:359;animation:ApOAttce_draw 2000ms linear 0ms forwards;}.ApOAttce_1{stroke-dasharray:299 301;stroke-dashoffset:300;animation:ApOAttce_draw 2000ms linear 111ms forwards;}.ApOAttce_2{stroke-dasharray:159 161;stroke-dashoffset:160;animation:ApOAttce_draw 2000ms linear 222ms forwards;}.ApOAttce_3{stroke-dasharray:159 161;stroke-dashoffset:160;animation:ApOAttce_draw 2000ms linear 333ms forwards;}.ApOAttce_4{stroke-dasharray:251 253;stroke-dashoffset:252;animation:ApOAttce_draw 2000ms linear 444ms forwards;}.ApOAttce_5{stroke-dasharray:358 360;stroke-dashoffset:359;animation:ApOAttce_draw 2000ms linear 555ms forwards;}.ApOAttce_6{stroke-dasharray:299 301;stroke-dashoffset:300;animation:ApOAttce_draw 2000ms linear 666ms forwards;}.ApOAttce_7{stroke-dasharray:159 161;stroke-dashoffset:160;animation:ApOAttce_draw 2000ms linear 777ms forwards;}.ApOAttce_8{stroke-dasharray:159 161;stroke-dashoffset:160;animation:ApOAttce_draw 2000ms linear 888ms forwards;}.ApOAttce_9{stroke-dasharray:251 253;stroke-dashoffset:252;animation:ApOAttce_draw 2000ms linear 1000ms forwards;}@keyframes ApOAttce_draw{100%{stroke-dashoffset:0;}}@keyframes ApOAttce_fade{0%{stroke-opacity:1;}94.44444444444444%{stroke-opacity:1;}100%{stroke-opacity:0;}}</style></svg>
